<?xml version="1.0" standalone="no"?>
 <!DOCTYPE svg PUBLIC "-//W3C//DTD SVG 1.1//EN" 
 "http://www.w3.org/Graphics/SVG/1.1/DTD/svg11.dtd"> 
<svg
  xmlns:svg="http://www.w3.org/2000/svg"
  xmlns="http://www.w3.org/2000/svg"
  xmlns:xlink="http://www.w3.org/1999/xlink"
  version="1.1"
  width="297.0022mm" height="210.0072mm" viewBox="0.0000 0.0000 297.0022 210.0072">
<title>SVG Image created as meter-dial-antenna-analyzer-F_Silkscreen.svg date 2025/05/23 08:20:59 </title>
  <desc>Image generated by PCBNEW </desc>
<g style="fill:#000000; fill-opacity:1.0000;stroke:#000000; stroke-opacity:1.0000;
stroke-linecap:round; stroke-linejoin:round;"
 transform="translate(0 0) scale(1 1)">
</g>
<g style="fill:none; 
stroke:#000000; stroke-width:0.1500; stroke-opacity:1; 
stroke-linecap:round; stroke-linejoin:round;">
<text x="136.2500" y="106.2500"
textLength="2.2024" font-size="1.3333" lengthAdjust="spacingAndGlyphs"
text-anchor="middle" opacity="0" stroke-opacity="0">G1</text>
<g class="stroked-text"><desc>G1</desc>
<path d="M136.0357 105.2524
L135.9405 105.2048
" />
<path d="M135.9405 105.2048
L135.7976 105.2048
" />
<path d="M135.7976 105.2048
L135.6548 105.2524
" />
<path d="M135.6548 105.2524
L135.5595 105.3477
" />
<path d="M135.5595 105.3477
L135.5119 105.4429
" />
<path d="M135.5119 105.4429
L135.4643 105.6334
" />
<path d="M135.4643 105.6334
L135.4643 105.7762
" />
<path d="M135.4643 105.7762
L135.5119 105.9667
" />
<path d="M135.5119 105.9667
L135.5595 106.0620
" />
<path d="M135.5595 106.0620
L135.6548 106.1572
" />
<path d="M135.6548 106.1572
L135.7976 106.2048
" />
<path d="M135.7976 106.2048
L135.8929 106.2048
" />
<path d="M135.8929 106.2048
L136.0357 106.1572
" />
<path d="M136.0357 106.1572
L136.0833 106.1096
" />
<path d="M136.0833 106.1096
L136.0833 105.7762
" />
<path d="M136.0833 105.7762
L135.8929 105.7762
" />
<path d="M137.0357 106.2048
L136.4643 106.2048
" />
<path d="M136.7500 106.2048
L136.7500 105.2048
" />
<path d="M136.7500 105.2048
L136.6548 105.3477
" />
<path d="M136.6548 105.3477
L136.5595 105.4429
" />
<path d="M136.5595 105.4429
L136.4643 105.4905
" />
</g></g>
<g style="fill:none; 
stroke:#000000; stroke-width:0.2200; stroke-opacity:1; 
stroke-linecap:round; stroke-linejoin:round;">
<g transform="rotate(-346.100000 143.8100 80.0500)">
<text x="143.8100" y="80.0500"
textLength="1.7886" font-size="2.0000" lengthAdjust="spacingAndGlyphs"
text-anchor="start" opacity="0" stroke-opacity="0">5</text>
</g>
<g class="stroked-text"><desc>5</desc>
<path d="M145.5865 77.9341
L144.8931 77.7625
" />
<path d="M144.8931 77.7625
L144.5721 78.7623
" />
<path d="M144.5721 78.7623
L144.6666 78.6778
" />
<path d="M144.6666 78.6778
L144.8304 78.6104
" />
<path d="M144.8304 78.6104
L145.1771 78.6962
" />
<path d="M145.1771 78.6962
L145.2906 78.8322
" />
<path d="M145.2906 78.8322
L145.3348 78.9511
" />
<path d="M145.3348 78.9511
L145.3538 79.1716
" />
<path d="M145.3538 79.1716
L145.2280 79.6801
" />
<path d="M145.2280 79.6801
L145.1083 79.8663
" />
<path d="M145.1083 79.8663
L145.0138 79.9508
" />
<path d="M145.0138 79.9508
L144.8500 80.0182
" />
<path d="M144.8500 80.0182
L144.5033 79.9324
" />
<path d="M144.5033 79.9324
L144.3898 79.7964
" />
<path d="M144.3898 79.7964
L144.3456 79.6776
" />
</g><g transform="rotate(-322.100000 150.0700 92.2200)">
<text x="150.0700" y="92.2200"
textLength="4.6457" font-size="2.0000" lengthAdjust="spacingAndGlyphs"
text-anchor="start" opacity="0" stroke-opacity="0">500</text>
</g>
<g class="stroked-text"><desc>500</desc>
<path d="M152.5535 91.0096
L151.9899 90.5708
" />
<path d="M151.9899 90.5708
L151.2900 91.3536
" />
<path d="M151.2900 91.3536
L151.4107 91.3148
" />
<path d="M151.4107 91.3148
L151.5878 91.3199
" />
<path d="M151.5878 91.3199
L151.8696 91.5393
" />
<path d="M151.8696 91.5393
L151.9180 91.7097
" />
<path d="M151.9180 91.7097
L151.9100 91.8363
" />
<path d="M151.9100 91.8363
L151.8376 92.0455
" />
<path d="M151.8376 92.0455
L151.5159 92.4588
" />
<path d="M151.5159 92.4588
L151.3308 92.5803
" />
<path d="M151.3308 92.5803
L151.2101 92.6190
" />
<path d="M151.2101 92.6190
L151.0330 92.6140
" />
<path d="M151.0330 92.6140
L150.7512 92.3946
" />
<path d="M150.7512 92.3946
L150.7028 92.2242
" />
<path d="M150.7028 92.2242
L150.7108 92.0976
" />
<path d="M153.3426 91.6239
L153.4553 91.7116
" />
<path d="M153.4553 91.7116
L153.5037 91.8821
" />
<path d="M153.5037 91.8821
L153.4957 92.0086
" />
<path d="M153.4957 92.0086
L153.4233 92.2178
" />
<path d="M153.4233 92.2178
L153.2223 92.5924
" />
<path d="M153.2223 92.5924
L152.9005 93.0057
" />
<path d="M152.9005 93.0057
L152.5867 93.2925
" />
<path d="M152.5867 93.2925
L152.4017 93.4139
" />
<path d="M152.4017 93.4139
L152.2810 93.4527
" />
<path d="M152.2810 93.4527
L152.1039 93.4476
" />
<path d="M152.1039 93.4476
L151.9912 93.3599
" />
<path d="M151.9912 93.3599
L151.9428 93.1895
" />
<path d="M151.9428 93.1895
L151.9508 93.0629
" />
<path d="M151.9508 93.0629
L152.0231 92.8537
" />
<path d="M152.0231 92.8537
L152.2242 92.4792
" />
<path d="M152.2242 92.4792
L152.5459 92.0658
" />
<path d="M152.5459 92.0658
L152.8597 91.7790
" />
<path d="M152.8597 91.7790
L153.0448 91.6576
" />
<path d="M153.0448 91.6576
L153.1655 91.6188
" />
<path d="M153.1655 91.6188
L153.3426 91.6239
" />
<path d="M154.4698 92.5014
L154.5826 92.5892
" />
<path d="M154.5826 92.5892
L154.6309 92.7596
" />
<path d="M154.6309 92.7596
L154.6230 92.8862
" />
<path d="M154.6230 92.8862
L154.5506 93.0954
" />
<path d="M154.5506 93.0954
L154.3496 93.4699
" />
<path d="M154.3496 93.4699
L154.0278 93.8832
" />
<path d="M154.0278 93.8832
L153.7140 94.1700
" />
<path d="M153.7140 94.1700
L153.5289 94.2915
" />
<path d="M153.5289 94.2915
L153.4082 94.3303
" />
<path d="M153.4082 94.3303
L153.2311 94.3252
" />
<path d="M153.2311 94.3252
L153.1184 94.2374
" />
<path d="M153.1184 94.2374
L153.0700 94.0670
" />
<path d="M153.0700 94.0670
L153.0780 93.9405
" />
<path d="M153.0780 93.9405
L153.1504 93.7313
" />
<path d="M153.1504 93.7313
L153.3514 93.3567
" />
<path d="M153.3514 93.3567
L153.6732 92.9434
" />
<path d="M153.6732 92.9434
L153.9870 92.6566
" />
<path d="M153.9870 92.6566
L154.1720 92.5351
" />
<path d="M154.1720 92.5351
L154.2928 92.4964
" />
<path d="M154.2928 92.4964
L154.4698 92.5014
" />
</g><g transform="rotate(-2.400000 134.0400 79.2300)">
<text x="134.0400" y="79.2300"
textLength="1.7886" font-size="2.0000" lengthAdjust="spacingAndGlyphs"
text-anchor="start" opacity="0" stroke-opacity="0">3</text>
</g>
<g class="stroked-text"><desc>3</desc>
<path d="M134.2948 76.7365
L135.2226 76.6976
" />
<path d="M135.2226 76.6976
L134.7581 77.5559
" />
<path d="M134.7581 77.5559
L134.9722 77.5469
" />
<path d="M134.9722 77.5469
L135.1193 77.6456
" />
<path d="M135.1193 77.6456
L135.1951 77.7473
" />
<path d="M135.1951 77.7473
L135.2752 77.9536
" />
<path d="M135.2752 77.9536
L135.2972 78.4770
" />
<path d="M135.2972 78.4770
L135.2346 78.6893
" />
<path d="M135.2346 78.6893
L135.1676 78.7970
" />
<path d="M135.1676 78.7970
L135.0292 78.9076
" />
<path d="M135.0292 78.9076
L134.6010 78.9256
" />
<path d="M134.6010 78.9256
L134.4539 78.8269
" />
<path d="M134.4539 78.8269
L134.3782 78.7252
" />
</g><g transform="rotate(-21.000000 125.6700 90.4200)">
<text x="125.6700" y="90.4200"
textLength="3.2171" font-size="2.0000" lengthAdjust="spacingAndGlyphs"
text-anchor="start" opacity="0" stroke-opacity="0">20</text>
</g>
<g class="stroked-text"><desc>20</desc>
<path d="M125.2580 88.1454
L125.2871 88.0220
" />
<path d="M125.2871 88.0220
L125.3829 87.8730
" />
<path d="M125.3829 87.8730
L125.7163 87.7450
" />
<path d="M125.7163 87.7450
L125.8872 87.7917
" />
<path d="M125.8872 87.7917
L125.9915 87.8639
" />
<path d="M125.9915 87.8639
L126.1332 88.0339
" />
<path d="M126.1332 88.0339
L126.2083 88.2295
" />
<path d="M126.2083 88.2295
L126.2543 88.5485
" />
<path d="M126.2543 88.5485
L125.9046 90.0293
" />
<path d="M125.9046 90.0293
L126.7715 89.6965
" />
<path d="M126.8500 87.3099
L126.9833 87.2587
" />
<path d="M126.9833 87.2587
L127.1543 87.3053
" />
<path d="M127.1543 87.3053
L127.2585 87.3775
" />
<path d="M127.2585 87.3775
L127.4003 87.5475
" />
<path d="M127.4003 87.5475
L127.6171 87.9131
" />
<path d="M127.6171 87.9131
L127.8048 88.4021
" />
<path d="M127.8048 88.4021
L127.8883 88.8190
" />
<path d="M127.8883 88.8190
L127.8967 89.0402
" />
<path d="M127.8967 89.0402
L127.8676 89.1636
" />
<path d="M127.8676 89.1636
L127.7717 89.3126
" />
<path d="M127.7717 89.3126
L127.6384 89.3638
" />
<path d="M127.6384 89.3638
L127.4675 89.3172
" />
<path d="M127.4675 89.3172
L127.3632 89.2449
" />
<path d="M127.3632 89.2449
L127.2215 89.0749
" />
<path d="M127.2215 89.0749
L127.0046 88.7093
" />
<path d="M127.0046 88.7093
L126.8169 88.2203
" />
<path d="M126.8169 88.2203
L126.7334 87.8035
" />
<path d="M126.7334 87.8035
L126.7250 87.5823
" />
<path d="M126.7250 87.5823
L126.7541 87.4589
" />
<path d="M126.7541 87.4589
L126.8500 87.3099
" />
</g><g transform="rotate(-1.200000 134.1800 88.1300)">
<text x="134.1800" y="88.1300"
textLength="3.2171" font-size="2.0000" lengthAdjust="spacingAndGlyphs"
text-anchor="start" opacity="0" stroke-opacity="0">50</text>
</g>
<g class="stroked-text"><desc>50</desc>
<path d="M135.3439 85.6244
L134.6298 85.6394
" />
<path d="M134.6298 85.6394
L134.5803 86.6882
" />
<path d="M134.5803 86.6882
L134.6496 86.5820
" />
<path d="M134.6496 86.5820
L134.7902 86.4743
" />
<path d="M134.7902 86.4743
L135.1473 86.4668
" />
<path d="M135.1473 86.4668
L135.2923 86.5685
" />
<path d="M135.2923 86.5685
L135.3659 86.6718
" />
<path d="M135.3659 86.6718
L135.4417 86.8798
" />
<path d="M135.4417 86.8798
L135.4527 87.4035
" />
<path d="M135.4527 87.4035
L135.3856 87.6144
" />
<path d="M135.3856 87.6144
L135.3164 87.7207
" />
<path d="M135.3164 87.7207
L135.1758 87.8284
" />
<path d="M135.1758 87.8284
L134.8187 87.8359
" />
<path d="M134.8187 87.8359
L134.6737 87.7341
" />
<path d="M134.6737 87.7341
L134.6001 87.6309
" />
<path d="M136.3437 85.6035
L136.4866 85.6005
" />
<path d="M136.4866 85.6005
L136.6316 85.7022
" />
<path d="M136.6316 85.7022
L136.7052 85.8055
" />
<path d="M136.7052 85.8055
L136.7810 86.0134
" />
<path d="M136.7810 86.0134
L136.8612 86.4309
" />
<path d="M136.8612 86.4309
L136.8721 86.9546
" />
<path d="M136.8721 86.9546
L136.8095 87.3750
" />
<path d="M136.8095 87.3750
L136.7425 87.5860
" />
<path d="M136.7425 87.5860
L136.6733 87.6922
" />
<path d="M136.6733 87.6922
L136.5326 87.8000
" />
<path d="M136.5326 87.8000
L136.3898 87.8030
" />
<path d="M136.3898 87.8030
L136.2448 87.7012
" />
<path d="M136.2448 87.7012
L136.1712 87.5980
" />
<path d="M136.1712 87.5980
L136.0954 87.3900
" />
<path d="M136.0954 87.3900
L136.0152 86.9725
" />
<path d="M136.0152 86.9725
L136.0042 86.4488
" />
<path d="M136.0042 86.4488
L136.0668 86.0284
" />
<path d="M136.0668 86.0284
L136.1339 85.8174
" />
<path d="M136.1339 85.8174
L136.2031 85.7112
" />
<path d="M136.2031 85.7112
L136.3437 85.6035
" />
</g><g transform="rotate(-332.500000 145.7800 89.8900)">
<text x="145.7800" y="89.8900"
textLength="4.6457" font-size="2.0000" lengthAdjust="spacingAndGlyphs"
text-anchor="start" opacity="0" stroke-opacity="0">200</text>
</g>
<g class="stroked-text"><desc>200</desc>
<path d="M147.2105 88.0742
L147.3222 88.0143
" />
<path d="M147.3222 88.0143
L147.4973 87.9873
" />
<path d="M147.4973 87.9873
L147.8141 88.1522
" />
<path d="M147.8141 88.1522
L147.8925 88.3111
" />
<path d="M147.8925 88.3111
L147.9075 88.4370
" />
<path d="M147.9075 88.4370
L147.8741 88.6559
" />
<path d="M147.8741 88.6559
L147.7773 88.8417
" />
<path d="M147.7773 88.8417
L147.5688 89.0875
" />
<path d="M147.5688 89.0875
L146.2281 89.8068
" />
<path d="M146.2281 89.8068
L147.0517 90.2356
" />
<path d="M148.8912 88.7129
L149.0179 88.7789
" />
<path d="M149.0179 88.7789
L149.0963 88.9378
" />
<path d="M149.0963 88.9378
L149.1113 89.0637
" />
<path d="M149.1113 89.0637
L149.0779 89.2825
" />
<path d="M149.0779 89.2825
L148.9477 89.6872
" />
<path d="M148.9477 89.6872
L148.7059 90.1518
" />
<path d="M148.7059 90.1518
L148.4490 90.4905
" />
<path d="M148.4490 90.4905
L148.2889 90.6434
" />
<path d="M148.2889 90.6434
L148.1772 90.7033
" />
<path d="M148.1772 90.7033
L148.0021 90.7303
" />
<path d="M148.0021 90.7303
L147.8754 90.6643
" />
<path d="M147.8754 90.6643
L147.7970 90.5055
" />
<path d="M147.7970 90.5055
L147.7820 90.3795
" />
<path d="M147.7820 90.3795
L147.8154 90.1607
" />
<path d="M147.8154 90.1607
L147.9456 89.7560
" />
<path d="M147.9456 89.7560
L148.1874 89.2914
" />
<path d="M148.1874 89.2914
L148.4443 88.9527
" />
<path d="M148.4443 88.9527
L148.6044 88.7998
" />
<path d="M148.6044 88.7998
L148.7161 88.7399
" />
<path d="M148.7161 88.7399
L148.8912 88.7129
" />
<path d="M150.1584 89.3726
L150.2851 89.4385
" />
<path d="M150.2851 89.4385
L150.3634 89.5974
" />
<path d="M150.3634 89.5974
L150.3784 89.7233
" />
<path d="M150.3784 89.7233
L150.3450 89.9422
" />
<path d="M150.3450 89.9422
L150.2149 90.3468
" />
<path d="M150.2149 90.3468
L149.9730 90.8115
" />
<path d="M149.9730 90.8115
L149.7162 91.1502
" />
<path d="M149.7162 91.1502
L149.5561 91.3030
" />
<path d="M149.5561 91.3030
L149.4443 91.3630
" />
<path d="M149.4443 91.3630
L149.2692 91.3899
" />
<path d="M149.2692 91.3899
L149.1425 91.3240
" />
<path d="M149.1425 91.3240
L149.0642 91.1651
" />
<path d="M149.0642 91.1651
L149.0492 91.0392
" />
<path d="M149.0492 91.0392
L149.0826 90.8204
" />
<path d="M149.0826 90.8204
L149.2127 90.4157
" />
<path d="M149.2127 90.4157
L149.4546 89.9511
" />
<path d="M149.4546 89.9511
L149.7114 89.6123
" />
<path d="M149.7114 89.6123
L149.8715 89.4595
" />
<path d="M149.8715 89.4595
L149.9833 89.3995
" />
<path d="M149.9833 89.3995
L150.1584 89.3726
" />
</g></g>
<g style="fill:none; 
stroke:#000000; stroke-width:0.1500; stroke-opacity:1; 
stroke-linecap:round; stroke-linejoin:round;">
<text x="108.2500" y="108.1000"
textLength="10.5357" font-size="1.3333" lengthAdjust="spacingAndGlyphs"
text-anchor="start" opacity="0" stroke-opacity="0">JLCJLCJLCJLC</text>
<g class="stroked-text"><desc>JLCJLCJLCJLC</desc>
<path d="M108.8725 106.9698
L108.8725 107.6841
" />
<path d="M108.8725 107.6841
L108.8249 107.8270
" />
<path d="M108.8249 107.8270
L108.7296 107.9222
" />
<path d="M108.7296 107.9222
L108.5868 107.9698
" />
<path d="M108.5868 107.9698
L108.4915 107.9698
" />
<path d="M109.8249 107.9698
L109.3487 107.9698
" />
<path d="M109.3487 107.9698
L109.3487 106.9698
" />
<path d="M110.7296 107.8746
L110.6820 107.9222
" />
<path d="M110.6820 107.9222
L110.5392 107.9698
" />
<path d="M110.5392 107.9698
L110.4439 107.9698
" />
<path d="M110.4439 107.9698
L110.3011 107.9222
" />
<path d="M110.3011 107.9222
L110.2058 107.8270
" />
<path d="M110.2058 107.8270
L110.1582 107.7317
" />
<path d="M110.1582 107.7317
L110.1106 107.5412
" />
<path d="M110.1106 107.5412
L110.1106 107.3984
" />
<path d="M110.1106 107.3984
L110.1582 107.2079
" />
<path d="M110.1582 107.2079
L110.2058 107.1127
" />
<path d="M110.2058 107.1127
L110.3011 107.0174
" />
<path d="M110.3011 107.0174
L110.4439 106.9698
" />
<path d="M110.4439 106.9698
L110.5392 106.9698
" />
<path d="M110.5392 106.9698
L110.6820 107.0174
" />
<path d="M110.6820 107.0174
L110.7296 107.0651
" />
<path d="M111.4439 106.9698
L111.4439 107.6841
" />
<path d="M111.4439 107.6841
L111.3963 107.8270
" />
<path d="M111.3963 107.8270
L111.3011 107.9222
" />
<path d="M111.3011 107.9222
L111.1582 107.9698
" />
<path d="M111.1582 107.9698
L111.0630 107.9698
" />
<path d="M112.3963 107.9698
L111.9201 107.9698
" />
<path d="M111.9201 107.9698
L111.9201 106.9698
" />
<path d="M113.3011 107.8746
L113.2534 107.9222
" />
<path d="M113.2534 107.9222
L113.1106 107.9698
" />
<path d="M113.1106 107.9698
L113.0154 107.9698
" />
<path d="M113.0154 107.9698
L112.8725 107.9222
" />
<path d="M112.8725 107.9222
L112.7773 107.8270
" />
<path d="M112.7773 107.8270
L112.7296 107.7317
" />
<path d="M112.7296 107.7317
L112.6820 107.5412
" />
<path d="M112.6820 107.5412
L112.6820 107.3984
" />
<path d="M112.6820 107.3984
L112.7296 107.2079
" />
<path d="M112.7296 107.2079
L112.7773 107.1127
" />
<path d="M112.7773 107.1127
L112.8725 107.0174
" />
<path d="M112.8725 107.0174
L113.0154 106.9698
" />
<path d="M113.0154 106.9698
L113.1106 106.9698
" />
<path d="M113.1106 106.9698
L113.2534 107.0174
" />
<path d="M113.2534 107.0174
L113.3011 107.0651
" />
<path d="M114.0154 106.9698
L114.0154 107.6841
" />
<path d="M114.0154 107.6841
L113.9677 107.8270
" />
<path d="M113.9677 107.8270
L113.8725 107.9222
" />
<path d="M113.8725 107.9222
L113.7296 107.9698
" />
<path d="M113.7296 107.9698
L113.6344 107.9698
" />
<path d="M114.9677 107.9698
L114.4915 107.9698
" />
<path d="M114.4915 107.9698
L114.4915 106.9698
" />
<path d="M115.8725 107.8746
L115.8249 107.9222
" />
<path d="M115.8249 107.9222
L115.6820 107.9698
" />
<path d="M115.6820 107.9698
L115.5868 107.9698
" />
<path d="M115.5868 107.9698
L115.4439 107.9222
" />
<path d="M115.4439 107.9222
L115.3487 107.8270
" />
<path d="M115.3487 107.8270
L115.3011 107.7317
" />
<path d="M115.3011 107.7317
L115.2534 107.5412
" />
<path d="M115.2534 107.5412
L115.2534 107.3984
" />
<path d="M115.2534 107.3984
L115.3011 107.2079
" />
<path d="M115.3011 107.2079
L115.3487 107.1127
" />
<path d="M115.3487 107.1127
L115.4439 107.0174
" />
<path d="M115.4439 107.0174
L115.5868 106.9698
" />
<path d="M115.5868 106.9698
L115.6820 106.9698
" />
<path d="M115.6820 106.9698
L115.8249 107.0174
" />
<path d="M115.8249 107.0174
L115.8725 107.0651
" />
<path d="M116.5868 106.9698
L116.5868 107.6841
" />
<path d="M116.5868 107.6841
L116.5392 107.8270
" />
<path d="M116.5392 107.8270
L116.4439 107.9222
" />
<path d="M116.4439 107.9222
L116.3011 107.9698
" />
<path d="M116.3011 107.9698
L116.2058 107.9698
" />
<path d="M117.5392 107.9698
L117.0630 107.9698
" />
<path d="M117.0630 107.9698
L117.0630 106.9698
" />
<path d="M118.4439 107.8746
L118.3963 107.9222
" />
<path d="M118.3963 107.9222
L118.2534 107.9698
" />
<path d="M118.2534 107.9698
L118.1582 107.9698
" />
<path d="M118.1582 107.9698
L118.0154 107.9222
" />
<path d="M118.0154 107.9222
L117.9201 107.8270
" />
<path d="M117.9201 107.8270
L117.8725 107.7317
" />
<path d="M117.8725 107.7317
L117.8249 107.5412
" />
<path d="M117.8249 107.5412
L117.8249 107.3984
" />
<path d="M117.8249 107.3984
L117.8725 107.2079
" />
<path d="M117.8725 107.2079
L117.9201 107.1127
" />
<path d="M117.9201 107.1127
L118.0154 107.0174
" />
<path d="M118.0154 107.0174
L118.1582 106.9698
" />
<path d="M118.1582 106.9698
L118.2534 106.9698
" />
<path d="M118.2534 106.9698
L118.3963 107.0174
" />
<path d="M118.3963 107.0174
L118.4439 107.0651
" />
</g></g>
<g style="fill:none; 
stroke:#000000; stroke-width:0.2200; stroke-opacity:1; 
stroke-linecap:round; stroke-linejoin:round;">
<g transform="rotate(-310.000000 154.2500 95.6000)">
<text x="154.2500" y="95.6000"
textLength="4.8600" font-size="2.0000" lengthAdjust="spacingAndGlyphs"
text-anchor="start" opacity="0" stroke-opacity="0">R/Z</text>
</g>
<g class="stroked-text"><desc>R/Z</desc>
<path d="M155.3386 96.4607
L155.8197 95.4042
" />
<path d="M154.7876 95.8040
L156.4729 94.3899
" />
<path d="M156.4729 94.3899
L156.8402 94.8277
" />
<path d="M156.8402 94.8277
L156.8518 95.0044
" />
<path d="M156.8518 95.0044
L156.8175 95.1265
" />
<path d="M156.8175 95.1265
L156.7029 95.3159
" />
<path d="M156.7029 95.3159
L156.4621 95.5179
" />
<path d="M156.4621 95.5179
L156.2557 95.5979
" />
<path d="M156.2557 95.5979
L156.1295 95.6105
" />
<path d="M156.1295 95.6105
L155.9574 95.5684
" />
<path d="M155.9574 95.5684
L155.5901 95.1306
" />
<path d="M158.2060 96.2924
L155.2128 97.1257
" />
<path d="M158.3554 96.6333
L158.9981 97.3994
" />
<path d="M158.9981 97.3994
L156.6701 98.0475
" />
<path d="M156.6701 98.0475
L157.3128 98.8135
" />
</g></g>
<g style="fill:none; 
stroke:#000000; stroke-width:0.2000; stroke-opacity:1; 
stroke-linecap:round; stroke-linejoin:round;">
<g transform="rotate(-43.000000 159.1500 95.3000)">
<text x="159.1500" y="95.3000"
textLength="3.9924" font-size="1.7333" lengthAdjust="spacingAndGlyphs"
text-anchor="start" opacity="0" stroke-opacity="0">FSD</text>
</g>
<g class="stroked-text"><desc>FSD</desc>
<path d="M159.1214 93.9871
L158.8045 94.2827
" />
<path d="M159.3403 94.8573
L158.3173 93.7603
" />
<path d="M158.3173 93.7603
L158.7701 93.3381
" />
<path d="M160.0613 94.0873
L160.2458 94.0129
" />
<path d="M160.2458 94.0129
L160.4722 93.8018
" />
<path d="M160.4722 93.8018
L160.5140 93.6652
" />
<path d="M160.5140 93.6652
L160.5106 93.5707
" />
<path d="M160.5106 93.5707
L160.4584 93.4240
" />
<path d="M160.4584 93.4240
L160.3610 93.3195
" />
<path d="M160.3610 93.3195
L160.2183 93.2573
" />
<path d="M160.2183 93.2573
L160.1243 93.2472
" />
<path d="M160.1243 93.2472
L159.9850 93.2794
" />
<path d="M159.9850 93.2794
L159.7552 93.3961
" />
<path d="M159.7552 93.3961
L159.6160 93.4283
" />
<path d="M159.6160 93.4283
L159.5220 93.4183
" />
<path d="M159.5220 93.4183
L159.3793 93.3560
" />
<path d="M159.3793 93.3560
L159.2818 93.2515
" />
<path d="M159.2818 93.2515
L159.2297 93.1048
" />
<path d="M159.2297 93.1048
L159.2262 93.0104
" />
<path d="M159.2262 93.0104
L159.2681 92.8737
" />
<path d="M159.2681 92.8737
L159.4944 92.6626
" />
<path d="M159.4944 92.6626
L159.6790 92.5882
" />
<path d="M161.0607 93.2530
L160.0377 92.1560
" />
<path d="M160.0377 92.1560
L160.2641 91.9449
" />
<path d="M160.2641 91.9449
L160.4486 91.8704
" />
<path d="M160.4486 91.8704
L160.6366 91.8905
" />
<path d="M160.6366 91.8905
L160.7793 91.9527
" />
<path d="M160.7793 91.9527
L161.0195 92.1195
" />
<path d="M161.0195 92.1195
L161.1656 92.2762
" />
<path d="M161.1656 92.2762
L161.3152 92.5274
" />
<path d="M161.3152 92.5274
L161.3673 92.6741
" />
<path d="M161.3673 92.6741
L161.3742 92.8630
" />
<path d="M161.3742 92.8630
L161.2871 93.0419
" />
<path d="M161.2871 93.0419
L161.0607 93.2530
" />
</g><g transform="rotate(-341.000000 141.5500 94.3000)">
<text x="141.5500" y="94.3000"
textLength="2.3210" font-size="1.7333" lengthAdjust="spacingAndGlyphs"
text-anchor="start" opacity="0" stroke-opacity="0">IN</text>
</g>
<g class="stroked-text"><desc>IN</desc>
<path d="M142.0302 94.2602
L142.5186 92.8419
" />
<path d="M142.6155 94.4617
L143.1039 93.0435
" />
<path d="M143.1039 93.0435
L143.3179 94.7036
" />
<path d="M143.3179 94.7036
L143.8063 93.2853
" />
</g></g>
<g style="fill:none; 
stroke:#000000; stroke-width:0.2200; stroke-opacity:1; 
stroke-linecap:round; stroke-linejoin:round;">
<g transform="rotate(-18.700000 123.7500 81.6000)">
<text x="123.7500" y="81.6000"
textLength="3.9314" font-size="2.0000" lengthAdjust="spacingAndGlyphs"
text-anchor="start" opacity="0" stroke-opacity="0">2.0</text>
</g>
<g class="stroked-text"><desc>2.0</desc>
<path d="M123.4296 79.3107
L123.4636 79.1886
" />
<path d="M123.4636 79.1886
L123.5654 79.0436
" />
<path d="M123.5654 79.0436
L123.9037 78.9291
" />
<path d="M123.9037 78.9291
L124.0726 78.9825
" />
<path d="M124.0726 78.9825
L124.1738 79.0588
" />
<path d="M124.1738 79.0588
L124.3086 79.2344
" />
<path d="M124.3086 79.2344
L124.3758 79.4328
" />
<path d="M124.3758 79.4328
L124.4089 79.7534
" />
<path d="M124.4089 79.7534
L124.0001 81.2190
" />
<path d="M124.0001 81.2190
L124.8796 80.9213
" />
<path d="M125.4214 80.5167
L125.5226 80.5931
" />
<path d="M125.5226 80.5931
L125.4886 80.7152
" />
<path d="M125.4886 80.7152
L125.3873 80.6389
" />
<path d="M125.3873 80.6389
L125.4214 80.5167
" />
<path d="M125.4214 80.5167
L125.4886 80.7152
" />
<path d="M125.7304 78.3107
L125.8657 78.2649
" />
<path d="M125.8657 78.2649
L126.0346 78.3184
" />
<path d="M126.0346 78.3184
L126.1359 78.3947
" />
<path d="M126.1359 78.3947
L126.2707 78.5703
" />
<path d="M126.2707 78.5703
L126.4727 78.9443
" />
<path d="M126.4727 78.9443
L126.6407 79.4404
" />
<path d="M126.6407 79.4404
L126.7074 79.8603
" />
<path d="M126.7074 79.8603
L126.7069 80.0816
" />
<path d="M126.7069 80.0816
L126.6728 80.2038
" />
<path d="M126.6728 80.2038
L126.5711 80.3488
" />
<path d="M126.5711 80.3488
L126.4358 80.3946
" />
<path d="M126.4358 80.3946
L126.2669 80.3412
" />
<path d="M126.2669 80.3412
L126.1656 80.2648
" />
<path d="M126.1656 80.2648
L126.0308 80.0893
" />
<path d="M126.0308 80.0893
L125.8288 79.7152
" />
<path d="M125.8288 79.7152
L125.6608 79.2191
" />
<path d="M125.6608 79.2191
L125.5941 78.7993
" />
<path d="M125.5941 78.7993
L125.5946 78.5779
" />
<path d="M125.5946 78.5779
L125.6287 78.4558
" />
<path d="M125.6287 78.4558
L125.7304 78.3107
" />
</g><g transform="rotate(-47.000000 117.3700 96.6400)">
<text x="117.3700" y="96.6400"
textLength="1.7886" font-size="2.0000" lengthAdjust="spacingAndGlyphs"
text-anchor="start" opacity="0" stroke-opacity="0">0</text>
</g>
<g class="stroked-text"><desc>0</desc>
<path d="M116.0929 94.3722
L116.1903 94.2677
" />
<path d="M116.1903 94.2677
L116.3644 94.2347
" />
<path d="M116.3644 94.2347
L116.4897 94.2539
" />
<path d="M116.4897 94.2539
L116.6916 94.3445
" />
<path d="M116.6916 94.3445
L117.0468 94.5781
" />
<path d="M117.0468 94.5781
L117.4299 94.9353
" />
<path d="M117.4299 94.9353
L117.6877 95.2733
" />
<path d="M117.6877 95.2733
L117.7922 95.4685
" />
<path d="M117.7922 95.4685
L117.8201 95.5922
" />
<path d="M117.8201 95.5922
L117.7993 95.7681
" />
<path d="M117.7993 95.7681
L117.7019 95.8726
" />
<path d="M117.7019 95.8726
L117.5278 95.9056
" />
<path d="M117.5278 95.9056
L117.4025 95.8864
" />
<path d="M117.4025 95.8864
L117.2005 95.7957
" />
<path d="M117.2005 95.7957
L116.8453 95.5622
" />
<path d="M116.8453 95.5622
L116.4623 95.2049
" />
<path d="M116.4623 95.2049
L116.2045 94.8669
" />
<path d="M116.2045 94.8669
L116.1000 94.6718
" />
<path d="M116.1000 94.6718
L116.0721 94.5481
" />
<path d="M116.0721 94.5481
L116.0929 94.3722
" />
</g><g transform="rotate(-321.000000 155.6500 85.2000)">
<text x="155.6500" y="85.2000"
textLength="5.0029" font-size="2.0000" lengthAdjust="spacingAndGlyphs"
text-anchor="start" opacity="0" stroke-opacity="0">SWR</text>
</g>
<g class="stroked-text"><desc>SWR</desc>
<path d="M156.2271 85.1713
L156.3277 85.3876
" />
<path d="M156.3277 85.3876
L156.6052 85.6124
" />
<path d="M156.6052 85.6124
L156.7822 85.6209
" />
<path d="M156.7822 85.6209
L156.9036 85.5844
" />
<path d="M156.9036 85.5844
L157.0910 85.4665
" />
<path d="M157.0910 85.4665
L157.2229 85.3037
" />
<path d="M157.2229 85.3037
L157.2992 85.0959
" />
<path d="M157.2992 85.0959
L157.3096 84.9695
" />
<path d="M157.3096 84.9695
L157.2645 84.7982
" />
<path d="M157.2645 84.7982
L157.1084 84.5370
" />
<path d="M157.1084 84.5370
L157.0633 84.3657
" />
<path d="M157.0633 84.3657
L157.0737 84.2393
" />
<path d="M157.0737 84.2393
L157.1501 84.0315
" />
<path d="M157.1501 84.0315
L157.2819 83.8687
" />
<path d="M157.2819 83.8687
L157.4693 83.7508
" />
<path d="M157.4693 83.7508
L157.5908 83.7144
" />
<path d="M157.5908 83.7144
L157.7677 83.7228
" />
<path d="M157.7677 83.7228
L158.0453 83.9476
" />
<path d="M158.0453 83.9476
L158.1459 84.1639
" />
<path d="M158.6004 84.3971
L157.4934 86.3316
" />
<path d="M157.4934 86.3316
L158.7044 85.2902
" />
<path d="M158.7044 85.2902
L157.9375 86.6912
" />
<path d="M157.9375 86.6912
L159.5995 85.2062
" />
<path d="M159.3253 87.8150
L159.5960 86.6862
" />
<path d="M158.6591 87.2756
L160.0436 85.5659
" />
<path d="M160.0436 85.5659
L160.4877 85.9255
" />
<path d="M160.4877 85.9255
L160.5328 86.0968
" />
<path d="M160.5328 86.0968
L160.5224 86.2232
" />
<path d="M160.5224 86.2232
L160.4460 86.4309
" />
<path d="M160.4460 86.4309
L160.2483 86.6752
" />
<path d="M160.2483 86.6752
L160.0609 86.7931
" />
<path d="M160.0609 86.7931
L159.9394 86.8295
" />
<path d="M159.9394 86.8295
L159.7625 86.8210
" />
<path d="M159.7625 86.8210
L159.3184 86.4614
" />
</g><g transform="rotate(-31.800000 116.7500 85.1000)">
<text x="116.7500" y="85.1000"
textLength="3.9314" font-size="2.0000" lengthAdjust="spacingAndGlyphs"
text-anchor="start" opacity="0" stroke-opacity="0">1.5</text>
</g>
<g class="stroked-text"><desc>1.5</desc>
<path d="M117.6964 84.1829
L116.9679 84.6346
" />
<path d="M117.3322 84.4088
L116.1729 82.5390
" />
<path d="M116.1729 82.5390
L116.2171 82.8814
" />
<path d="M116.2171 82.8814
L116.2061 83.1348
" />
<path d="M116.2061 83.1348
L116.1399 83.2991
" />
<path d="M118.1324 83.6661
L118.2483 83.7175
" />
<path d="M118.2483 83.7175
L118.2428 83.8442
" />
<path d="M118.2428 83.8442
L118.1269 83.7928
" />
<path d="M118.1269 83.7928
L118.1324 83.6661
" />
<path d="M118.1324 83.6661
L118.2428 83.8442
" />
<path d="M118.2976 81.2216
L117.6905 81.5980
" />
<path d="M117.6905 81.5980
L118.1819 82.5260
" />
<path d="M118.1819 82.5260
L118.1874 82.3994
" />
<path d="M118.1874 82.3994
L118.2536 82.2350
" />
<path d="M118.2536 82.2350
L118.5571 82.0468
" />
<path d="M118.5571 82.0468
L118.7337 82.0606
" />
<path d="M118.7337 82.0606
L118.8496 82.1120
" />
<path d="M118.8496 82.1120
L119.0208 82.2524
" />
<path d="M119.0208 82.2524
L119.2968 82.6976
" />
<path d="M119.2968 82.6976
L119.3465 82.9133
" />
<path d="M119.3465 82.9133
L119.3410 83.0400
" />
<path d="M119.3410 83.0400
L119.2748 83.2043
" />
<path d="M119.2748 83.2043
L118.9712 83.3925
" />
<path d="M118.9712 83.3925
L118.7946 83.3788
" />
<path d="M118.7946 83.3788
L118.6787 83.3274
" />
</g><g transform="rotate(-34.000000 121.2900 92.8800)">
<text x="121.2900" y="92.8800"
textLength="3.2171" font-size="2.0000" lengthAdjust="spacingAndGlyphs"
text-anchor="start" opacity="0" stroke-opacity="0">10</text>
</g>
<g class="stroked-text"><desc>10</desc>
<path d="M122.2005 91.9273
L121.4899 92.4066
" />
<path d="M121.8452 92.1669
L120.6150 90.3431
" />
<path d="M120.6150 90.3431
L120.6723 90.6835
" />
<path d="M120.6723 90.6835
L120.6710 90.9371
" />
<path d="M120.6710 90.9371
L120.6112 91.1038
" />
<path d="M121.7401 89.5842
L121.8585 89.5043
" />
<path d="M121.8585 89.5043
L122.0356 89.5112
" />
<path d="M122.0356 89.5112
L122.1534 89.5582
" />
<path d="M122.1534 89.5582
L122.3297 89.6919
" />
<path d="M122.3297 89.6919
L122.6233 89.9994
" />
<path d="M122.6233 89.9994
L122.9162 90.4336
" />
<path d="M122.9162 90.4336
L123.0913 90.8210
" />
<path d="M123.0913 90.8210
L123.1492 91.0346
" />
<path d="M123.1492 91.0346
L123.1486 91.1614
" />
<path d="M123.1486 91.1614
L123.0888 91.3282
" />
<path d="M123.0888 91.3282
L122.9703 91.4080
" />
<path d="M122.9703 91.4080
L122.7933 91.4011
" />
<path d="M122.7933 91.4011
L122.6755 91.3542
" />
<path d="M122.6755 91.3542
L122.4991 91.2204
" />
<path d="M122.4991 91.2204
L122.2056 90.9129
" />
<path d="M122.2056 90.9129
L121.9127 90.4787
" />
<path d="M121.9127 90.4787
L121.7376 90.0913
" />
<path d="M121.7376 90.0913
L121.6796 89.8777
" />
<path d="M121.6796 89.8777
L121.6803 89.7509
" />
<path d="M121.6803 89.7509
L121.7401 89.5842
" />
</g><g transform="rotate(-345.400000 140.2300 88.2900)">
<text x="140.2300" y="88.2900"
textLength="4.6457" font-size="2.0000" lengthAdjust="spacingAndGlyphs"
text-anchor="start" opacity="0" stroke-opacity="0">100</text>
</g>
<g class="stroked-text"><desc>100</desc>
<path d="M141.5468 88.3429
L140.7173 88.1269
" />
<path d="M141.1320 88.2349
L141.6866 86.1060
" />
<path d="M141.6866 86.1060
L141.4691 86.3741
" />
<path d="M141.4691 86.3741
L141.2781 86.5408
" />
<path d="M141.2781 86.5408
L141.1134 86.6062
" />
<path d="M142.9999 86.4481
L143.1381 86.4841
" />
<path d="M143.1381 86.4841
L143.2500 86.6215
" />
<path d="M143.2500 86.6215
L143.2927 86.7408
" />
<path d="M143.2927 86.7408
L143.3090 86.9616
" />
<path d="M143.3090 86.9616
L143.2725 87.3851
" />
<path d="M143.2725 87.3851
L143.1405 87.8920
" />
<path d="M143.1405 87.8920
L142.9657 88.2795
" />
<path d="M142.9657 88.2795
L142.8438 88.4643
" />
<path d="M142.8438 88.4643
L142.7482 88.5477
" />
<path d="M142.7482 88.5477
L142.5836 88.6130
" />
<path d="M142.5836 88.6130
L142.4454 88.5770
" />
<path d="M142.4454 88.5770
L142.3335 88.4396
" />
<path d="M142.3335 88.4396
L142.2908 88.3202
" />
<path d="M142.2908 88.3202
L142.2745 88.0995
" />
<path d="M142.2745 88.0995
L142.3110 87.6760
" />
<path d="M142.3110 87.6760
L142.4430 87.1691
" />
<path d="M142.4430 87.1691
L142.6178 86.7815
" />
<path d="M142.6178 86.7815
L142.7397 86.5968
" />
<path d="M142.7397 86.5968
L142.8353 86.5134
" />
<path d="M142.8353 86.5134
L142.9999 86.4481
" />
<path d="M144.3823 86.8082
L144.5206 86.8442
" />
<path d="M144.5206 86.8442
L144.6324 86.9815
" />
<path d="M144.6324 86.9815
L144.6751 87.1009
" />
<path d="M144.6751 87.1009
L144.6914 87.3217
" />
<path d="M144.6914 87.3217
L144.6549 87.7452
" />
<path d="M144.6549 87.7452
L144.5229 88.2521
" />
<path d="M144.5229 88.2521
L144.3482 88.6396
" />
<path d="M144.3482 88.6396
L144.2262 88.8244
" />
<path d="M144.2262 88.8244
L144.1307 88.9078
" />
<path d="M144.1307 88.9078
L143.9660 88.9731
" />
<path d="M143.9660 88.9731
L143.8278 88.9371
" />
<path d="M143.8278 88.9371
L143.7160 88.7997
" />
<path d="M143.7160 88.7997
L143.6732 88.6803
" />
<path d="M143.6732 88.6803
L143.6569 88.4596
" />
<path d="M143.6569 88.4596
L143.6934 88.0361
" />
<path d="M143.6934 88.0361
L143.8255 87.5292
" />
<path d="M143.8255 87.5292
L144.0002 87.1416
" />
<path d="M144.0002 87.1416
L144.1222 86.9569
" />
<path d="M144.1222 86.9569
L144.2177 86.8735
" />
<path d="M144.2177 86.8735
L144.3823 86.8082
" />
</g><g transform="rotate(-47.000000 110.3500 90.7000)">
<text x="110.3500" y="90.7000"
textLength="3.9314" font-size="2.0000" lengthAdjust="spacingAndGlyphs"
text-anchor="start" opacity="0" stroke-opacity="0">1.0</text>
</g>
<g class="stroked-text"><desc>1.0</desc>
<path d="M111.0229 89.5669
L110.4383 90.1938
" />
<path d="M110.7306 89.8803
L109.1216 88.3799
" />
<path d="M109.1216 88.3799
L109.2540 88.6988
" />
<path d="M109.2540 88.6988
L109.3098 88.9461
" />
<path d="M109.3098 88.9461
L109.2890 89.1221
" />
<path d="M111.3081 88.9538
L111.4334 88.9730
" />
<path d="M111.4334 88.9730
L111.4613 89.0967
" />
<path d="M111.4613 89.0967
L111.3360 89.0775
" />
<path d="M111.3360 89.0775
L111.3081 88.9538
" />
<path d="M111.3081 88.9538
L111.4613 89.0967
" />
<path d="M110.5343 86.8650
L110.6317 86.7605
" />
<path d="M110.6317 86.7605
L110.8058 86.7275
" />
<path d="M110.8058 86.7275
L110.9311 86.7467
" />
<path d="M110.9311 86.7467
L111.1331 86.8373
" />
<path d="M111.1331 86.8373
L111.4883 87.0709
" />
<path d="M111.4883 87.0709
L111.8713 87.4281
" />
<path d="M111.8713 87.4281
L112.1291 87.7662
" />
<path d="M112.1291 87.7662
L112.2336 87.9613
" />
<path d="M112.2336 87.9613
L112.2615 88.0850
" />
<path d="M112.2615 88.0850
L112.2407 88.2609
" />
<path d="M112.2407 88.2609
L112.1433 88.3654
" />
<path d="M112.1433 88.3654
L111.9692 88.3984
" />
<path d="M111.9692 88.3984
L111.8439 88.3792
" />
<path d="M111.8439 88.3792
L111.6420 88.2886
" />
<path d="M111.6420 88.2886
L111.2868 88.0550
" />
<path d="M111.2868 88.0550
L110.9037 87.6978
" />
<path d="M110.9037 87.6978
L110.6459 87.3597
" />
<path d="M110.6459 87.3597
L110.5414 87.1646
" />
<path d="M110.5414 87.1646
L110.5135 87.0409
" />
<path d="M110.5135 87.0409
L110.5343 86.8650
" />
</g><g transform="rotate(-331.200000 151.7100 82.9300)">
<text x="151.7100" y="82.9300"
textLength="3.2171" font-size="2.0000" lengthAdjust="spacingAndGlyphs"
text-anchor="start" opacity="0" stroke-opacity="0">10</text>
</g>
<g class="stroked-text"><desc>10</desc>
<path d="M152.9735 83.3043
L152.2224 82.8914
" />
<path d="M152.5980 83.0979
L153.6578 81.1700
" />
<path d="M153.6578 81.1700
L153.3812 81.3766
" />
<path d="M153.3812 81.3766
L153.1551 81.4914
" />
<path d="M153.1551 81.4914
L152.9795 81.5144
" />
<path d="M154.8471 81.8238
L154.9723 81.8926
" />
<path d="M154.9723 81.8926
L155.0470 82.0533
" />
<path d="M155.0470 82.0533
L155.0591 82.1795
" />
<path d="M155.0591 82.1795
L155.0208 82.3975
" />
<path d="M155.0208 82.3975
L154.8815 82.7991
" />
<path d="M154.8815 82.7991
L154.6292 83.2581
" />
<path d="M154.6292 83.2581
L154.3647 83.5909
" />
<path d="M154.3647 83.5909
L154.2012 83.7401
" />
<path d="M154.2012 83.7401
L154.0881 83.7975
" />
<path d="M154.0881 83.7975
L153.9124 83.8205
" />
<path d="M153.9124 83.8205
L153.7873 83.7517
" />
<path d="M153.7873 83.7517
L153.7125 83.5911
" />
<path d="M153.7125 83.5911
L153.7004 83.4648
" />
<path d="M153.7004 83.4648
L153.7388 83.2468
" />
<path d="M153.7388 83.2468
L153.8780 82.8452
" />
<path d="M153.8780 82.8452
L154.1304 82.3862
" />
<path d="M154.1304 82.3862
L154.3949 82.0534
" />
<path d="M154.3949 82.0534
L154.5584 81.9042
" />
<path d="M154.5584 81.9042
L154.6715 81.8468
" />
<path d="M154.6715 81.8468
L154.8471 81.8238
" />
</g></g>
<g style="fill:none; 
stroke:#000000; stroke-width:0.2000; stroke-opacity:1; 
stroke-linecap:round; stroke-linejoin:round;">
<g transform="rotate(-331.000000 144.4500 95.4000)">
<text x="144.4500" y="95.4000"
textLength="3.0019" font-size="1.7333" lengthAdjust="spacingAndGlyphs"
text-anchor="start" opacity="0" stroke-opacity="0">OK</text>
</g>
<g class="stroked-text"><desc>OK</desc>
<path d="M145.8736 94.2523
L146.0902 94.3724
" />
<path d="M146.0902 94.3724
L146.1639 94.4949
" />
<path d="M146.1639 94.4949
L146.2029 94.6798
" />
<path d="M146.2029 94.6798
L146.1185 94.9597
" />
<path d="M146.1185 94.9597
L145.8761 95.3970
" />
<path d="M145.8761 95.3970
L145.6834 95.6169
" />
<path d="M145.6834 95.6169
L145.5059 95.6818
" />
<path d="M145.5059 95.6818
L145.3630 95.6843
" />
<path d="M145.3630 95.6843
L145.1464 95.5642
" />
<path d="M145.1464 95.5642
L145.0728 95.4417
" />
<path d="M145.0728 95.4417
L145.0337 95.2568
" />
<path d="M145.0337 95.2568
L145.1181 94.9769
" />
<path d="M145.1181 94.9769
L145.3605 94.5396
" />
<path d="M145.3605 94.5396
L145.5532 94.3197
" />
<path d="M145.5532 94.3197
L145.7307 94.2548
" />
<path d="M145.7307 94.2548
L145.8736 94.2523
" />
<path d="M146.1210 96.1045
L146.8482 94.7925
" />
<path d="M146.7707 96.4646
L146.6990 95.4448
" />
<path d="M147.4979 95.1527
L146.4326 95.5422
" />
</g></g>
<g style="fill:none; 
stroke:#000000; stroke-width:0.0200; stroke-opacity:1; 
stroke-linecap:round; stroke-linejoin:round;">
<path d="M106.5000 74.1000
L166.0000 74.1000
" />
<path d="M106.5000 109.5000
L106.5000 74.1000
" />
</g>
<g style="fill:none; 
stroke:#000000; stroke-width:0.4000; stroke-opacity:1; 
stroke-linecap:round; stroke-linejoin:round;">
<path d="M111.7600 90.2600
L113.4900 91.8600
" />
</g>
<g style="fill:none; 
stroke:#000000; stroke-width:0.1500; stroke-opacity:1; 
stroke-linecap:round; stroke-linejoin:round;">
<path d="M112.5686 90.1180
L114.0100 91.5200
" />
<path d="M113.8700 88.8600
L115.2300 90.3200
" />
</g>
<g style="fill:none; 
stroke:#000000; stroke-width:0.4000; stroke-opacity:1; 
stroke-linecap:round; stroke-linejoin:round;">
<path d="M114.0400 92.3800
L115.7721 94.0040
" />
</g>
<g style="fill:none; 
stroke:#000000; stroke-width:0.1500; stroke-opacity:1; 
stroke-linecap:round; stroke-linejoin:round;">
<path d="M115.7100 87.2700
L116.9500 88.8400
" />
<path d="M116.5800 89.7700
L117.8800 91.3200
" />
<path d="M117.2100 86.1600
L118.3600 87.7700
" />
</g>
<g style="fill:none; 
stroke:#000000; stroke-width:0.4000; stroke-opacity:1; 
stroke-linecap:round; stroke-linejoin:round;">
<path d="M118.5600 84.6500
L119.8400 86.6600
" />
<path d="M119.6500 87.6700
L120.9600 89.6400
" />
</g>
<g style="fill:none; 
stroke:#000000; stroke-width:0.1500; stroke-opacity:1; 
stroke-linecap:round; stroke-linejoin:round;">
<path d="M120.3550 84.1950
L121.3200 85.9300
" />
<path d="M121.7900 83.4400
L122.6600 85.2300
" />
<path d="M122.4800 85.8400
L123.4000 87.6600
" />
<path d="M123.0950 82.8350
L123.8900 84.6700
" />
<path d="M124.5300 82.2600
L125.2400 84.1200
" />
</g>
<g style="fill:none; 
stroke:#000000; stroke-width:0.4000; stroke-opacity:1; 
stroke-linecap:round; stroke-linejoin:round;">
<path d="M125.0600 84.8700
L125.9400 87.0600
" />
</g>
<g style="fill:none; 
stroke:#000000; stroke-width:0.0200; stroke-opacity:1; 
stroke-linecap:round; stroke-linejoin:round;">
<path d="M125.4000 107.3000
L125.4000 109.5000
" />
<path d="M125.4000 107.3000
L128.4000 107.3000
" />
<path d="M125.4000 109.5000
L106.5000 109.5000
" />
</g>
<g style="fill:none; 
stroke:#000000; stroke-width:0.4000; stroke-opacity:1; 
stroke-linecap:round; stroke-linejoin:round;">
<path d="M125.4900 81.3800
L126.2500 83.6300
" />
</g>
<g style="fill:none; 
stroke:#000000; stroke-width:0.1500; stroke-opacity:1; 
stroke-linecap:round; stroke-linejoin:round;">
<path d="M127.9100 81.1800
L128.4300 83.1000
" />
<path d="M129.3100 83.4000
L129.7600 85.3300
" />
<path d="M129.9500 80.7100
L130.3300 82.6700
" />
<path d="M131.7800 80.4200
L132.0600 82.3800
" />
<path d="M132.7900 82.7700
L133.0100 84.7800
" />
<path d="M133.3700 80.2400
L133.5500 82.2000
" />
<path d="M134.1098 90.1126
L134.1577 90.6000
" />
</g>
<g style="fill:none; 
stroke:#000000; stroke-width:0.4000; stroke-opacity:1; 
stroke-linecap:round; stroke-linejoin:round;">
<path d="M134.8500 79.6400
L134.9400 82.0000
" />
<path d="M135.6400 82.7400
L135.7000 85.1200
" />
</g>
<g style="fill:none; 
stroke:#000000; stroke-width:0.1500; stroke-opacity:1; 
stroke-linecap:round; stroke-linejoin:round;">
<path d="M137.9400 82.6500
L137.8400 84.6200
" />
<path d="M139.8200 82.8200
L139.5900 84.7800
" />
<path d="M140.5600 80.3900
L140.3000 82.3700
" />
<path d="M141.4700 83.0500
L141.1400 85.0100
" />
<path d="M142.8500 83.3100
L142.4200 85.2600
" />
</g>
<g style="fill:none; 
stroke:#000000; stroke-width:0.4000; stroke-opacity:1; 
stroke-linecap:round; stroke-linejoin:round;">
<path d="M143.9100 83.7200
L143.2800 86.1600
" />
</g>
<g style="fill:none; 
stroke:#000000; stroke-width:0.0200; stroke-opacity:1; 
stroke-linecap:round; stroke-linejoin:round;">
<path d="M144.1000 107.3000
L147.1000 107.3000
" />
</g>
<g style="fill:none; 
stroke:#000000; stroke-width:0.4000; stroke-opacity:1; 
stroke-linecap:round; stroke-linejoin:round;">
<path d="M144.2800 80.5800
L143.6900 82.8800
" />
</g>
<g style="fill:none; 
stroke:#000000; stroke-width:0.1500; stroke-opacity:1; 
stroke-linecap:round; stroke-linejoin:round;">
<path d="M145.9300 84.1700
L145.3100 86.0600
" />
<path d="M146.6100 81.7750
L145.9900 83.6650
" />
</g>
<g style="fill:none; 
stroke:#000000; stroke-width:0.0200; stroke-opacity:1; 
stroke-linecap:round; stroke-linejoin:round;">
<path d="M147.1000 107.3000
L147.1000 109.5000
" />
</g>
<g style="fill:none; 
stroke:#000000; stroke-width:0.1500; stroke-opacity:1; 
stroke-linecap:round; stroke-linejoin:round;">
<path d="M147.3600 84.6900
L146.6300 86.5300
" />
<path d="M148.5300 85.1750
L147.7200 86.9900
" />
<path d="M148.6000 82.5100
L147.8650 84.3500
" />
<path d="M149.4400 85.5950
L148.5800 87.3900
" />
<path d="M150.1400 83.1800
L149.3100 84.9800
" />
</g>
<g style="fill:none; 
stroke:#000000; stroke-width:0.4000; stroke-opacity:1; 
stroke-linecap:round; stroke-linejoin:round;">
<path d="M150.2600 86.1600
L149.1800 88.2800
" />
</g>
<g style="fill:none; 
stroke:#000000; stroke-width:0.1500; stroke-opacity:1; 
stroke-linecap:round; stroke-linejoin:round;">
<path d="M151.1800 83.6800
L150.2700 85.4500
" />
</g>
<g style="fill:none; 
stroke:#000000; stroke-width:0.4000; stroke-opacity:1; 
stroke-linecap:round; stroke-linejoin:round;">
<path d="M152.4200 83.7700
L151.2700 85.8400
" />
</g>
<g style="fill:none; 
stroke:#000000; stroke-width:0.1500; stroke-opacity:1; 
stroke-linecap:round; stroke-linejoin:round;">
<path d="M152.7950 87.4675
L151.7100 89.1300
" />
<path d="M153.0768 97.2930
L152.7318 97.6283
" />
<path d="M154.1300 88.3900
L152.9700 89.9900
" />
</g>
<g style="fill:none; 
stroke:#000000; stroke-width:0.4000; stroke-opacity:1; 
stroke-linecap:round; stroke-linejoin:round;">
<path d="M154.8900 89.1200
L153.4200 91.0000
" />
<path d="M159.8000 91.1400
L157.7100 93.1000
" />
</g>
<g style="fill:none; 
stroke:#000000; stroke-width:0.1500; stroke-opacity:1; 
stroke-linecap:round; stroke-linejoin:round;">
<path d="M160.3900 90.5900
L157.1000 93.6500
" />
<path d="M160.8491 90.1648
L162.6529 89.1665
" />
<path d="M161.9709 88.4352
L160.8491 90.1648
" />
<path d="M162.6529 89.1665
L161.9709 88.4352
" />
</g>
<g style="fill:none; 
stroke:#000000; stroke-width:0.0200; stroke-opacity:1; 
stroke-linecap:round; stroke-linejoin:round;">
<path d="M166.0000 109.5000
L147.1000 109.5000
" />
<path d="M166.0000 109.5000
L166.0000 74.1000
" />
</g>
<g style="fill:none; 
stroke:#000000; stroke-width:0.1500; stroke-opacity:1; 
stroke-linecap:round; stroke-linejoin:round;">
<path d="M151.2090 85.9518 A30.9967 30.9967 0.0 0 0 113.5900 91.9500" />
<path d="M154.9748 89.0244 A30.5000 30.5000 0.0 0 0 113.9437 92.2990" />
</g>
<g style="fill:none; 
stroke:#000000; stroke-width:0.0200; stroke-opacity:1; 
stroke-linecap:round; stroke-linejoin:round;">
<path d="M144.1000 107.3000 A9.7603 9.7603 0.0 0 0 128.4000 107.3000" />
</g>
<g style="fill:none; 
stroke:#000000; stroke-width:0.1500; stroke-opacity:1; 
stroke-linecap:round; stroke-linejoin:round;">
<path d="M153.0768 97.2930 A23.0868 23.0868 0.0 0 0 134.1098 90.1126" />
<path d="M152.7198 97.6283 A22.5971 22.5971 0.0 0 0 134.1578 90.6000" />
</g>
<g style="fill:none; 
stroke:#000000; stroke-width:0.0500; stroke-opacity:1; 
stroke-linecap:round; stroke-linejoin:round;">
<circle cx="120.7500" cy="106.5000" r="1.0000" /> 
<circle cx="151.7500" cy="106.5000" r="1.0000" /> 
</g> 
</svg>
